<?xml version="1.0" encoding="UTF-8"?>
<svg width="39px" height="40px" viewBox="0 0 39 40" version="1.1" xmlns="http://www.w3.org/2000/svg" xmlns:xlink="http://www.w3.org/1999/xlink">
    <!-- Generator: Sketch 47 (45396) - http://www.bohemiancoding.com/sketch -->
    <title>Shape</title>
    <desc>Created with Sketch.</desc>
    <defs></defs>
    <g id="Page-1" stroke="none" stroke-width="1" fill="none" fill-rule="evenodd">
        <g id="Desktop-HD-Copy" transform="translate(-1056.000000, -441.000000)" fill-rule="nonzero" fill="#FFFFFF">
            <g id="Group-7" transform="translate(1056.000000, 441.000000)">
                <g id="Group-2">
                    <path d="M14.0502222,19.6360801 C14.0502222,19.9786934 13.7504356,20.27848 13.4078223,20.27848 L11.0095295,20.27848 C10.6669162,20.27848 10.3671296,19.9786934 10.3671296,19.6360801 L10.3671296,17.2377873 C10.3671296,16.895174 10.6669162,16.5953874 11.0095295,16.5953874 L13.4078223,16.5953874 C13.7504356,16.5953874 14.0502222,16.895174 14.0502222,17.2377873 L14.0502222,19.6360801 Z M19.1037678,17.1949606 C19.1037678,16.8523473 18.8039812,16.5525607 18.4613679,16.5525607 L16.0630751,16.5525607 C15.7204618,16.5525607 15.4206752,16.8523473 15.4206752,17.1949606 L15.4206752,19.5932534 C15.4206752,19.9358667 15.7204618,20.2356533 16.0630751,20.2356533 L18.4613679,20.2356533 C18.8039812,20.2356533 19.1037678,19.9358667 19.1037678,19.5932534 L19.1037678,17.1949606 Z M24.1573134,17.1949606 C24.1573134,16.8523473 23.8575268,16.5525607 23.5149135,16.5525607 L21.073794,16.5525607 C20.7311808,16.5525607 20.4313942,16.8523473 20.4313942,17.1949606 L20.4313942,19.5932534 C20.4313942,19.9358667 20.7311808,20.2356533 21.073794,20.2356533 L23.4720869,20.2356533 C23.8147001,20.2356533 24.1144867,19.9358667 24.1144867,19.5932534 L24.1144867,17.1949606 L24.1573134,17.1949606 Z M14.0502222,22.1200263 C14.0502222,21.777413 13.7504356,21.4776264 13.4078223,21.4776264 L11.0095295,21.4776264 C10.6669162,21.4776264 10.3671296,21.777413 10.3671296,22.1200263 L10.3671296,24.5183191 C10.3671296,24.8609324 10.6669162,25.160719 11.0095295,25.160719 L13.4078223,25.160719 C13.7504356,25.160719 14.0502222,24.8609324 14.0502222,24.5183191 L14.0502222,22.1200263 Z M19.1037678,22.1200263 C19.1037678,21.777413 18.8039812,21.4776264 18.4613679,21.4776264 L16.0630751,21.4776264 C15.7204618,21.4776264 15.4206752,21.777413 15.4206752,22.1200263 L15.4206752,24.5183191 C15.4206752,24.8609324 15.7204618,25.160719 16.0630751,25.160719 L18.4613679,25.160719 C18.8039812,25.160719 19.1037678,24.8609324 19.1037678,24.5183191 L19.1037678,22.1200263 Z M23.5149135,21.4776264 L21.073794,21.4776264 C20.7311808,21.4776264 20.4313942,21.777413 20.4313942,22.1200263 L20.4313942,24.5183191 C20.4313942,24.8609324 20.7311808,25.160719 21.073794,25.160719 L23.4720869,25.160719 C23.8147001,25.160719 24.1144867,24.8609324 24.1144867,24.5183191 L24.1144867,22.1200263 C24.1573134,21.777413 23.8575268,21.4776264 23.5149135,21.4776264 Z M8.35427667,26.402692 L5.95598383,26.402692 C5.61337057,26.402692 5.31358396,26.7024786 5.31358396,27.0450919 L5.31358396,29.4433847 C5.31358396,29.785998 5.61337057,30.0857846 5.95598383,30.0857846 L8.35427667,30.0857846 C8.69688993,30.0857846 8.99667654,29.785998 8.99667654,29.4433847 L8.99667654,27.0450919 C8.99667654,26.659652 8.73971659,26.402692 8.35427667,26.402692 Z M8.99667654,22.1200263 C8.99667654,21.777413 8.69688993,21.4776264 8.35427667,21.4776264 L5.95598383,21.4776264 C5.61337057,21.4776264 5.31358396,21.777413 5.31358396,22.1200263 L5.31358396,24.5183191 C5.31358396,24.8609324 5.61337057,25.160719 5.95598383,25.160719 L8.35427667,25.160719 C8.69688993,25.160719 8.99667654,24.8609324 8.99667654,24.5183191 L8.99667654,22.1200263 L8.99667654,22.1200263 Z M18.4613679,26.402692 L16.0630751,26.402692 C15.7204618,26.402692 15.4206752,26.7024786 15.4206752,27.0450919 L15.4206752,29.4433847 C15.4206752,29.785998 15.7204618,30.0857846 16.0630751,30.0857846 L18.4613679,30.0857846 C18.8039812,30.0857846 19.1037678,29.785998 19.1037678,29.4433847 L19.1037678,27.0450919 C19.1037678,26.659652 18.8039812,26.402692 18.4613679,26.402692 Z M13.4078223,26.402692 L11.0095295,26.402692 C10.6669162,26.402692 10.3671296,26.7024786 10.3671296,27.0450919 L10.3671296,29.4433847 C10.3671296,29.785998 10.6669162,30.0857846 11.0095295,30.0857846 L13.4078223,30.0857846 C13.7504356,30.0857846 14.0502222,29.785998 14.0502222,29.4433847 L14.0502222,27.0450919 C14.0502222,26.659652 13.7504356,26.402692 13.4078223,26.402692 Z M28.5256325,20.27848 C28.8682458,20.27848 29.1680324,19.9786934 29.1680324,19.6360801 L29.1680324,17.2377873 C29.1680324,16.895174 28.8682458,16.5953874 28.5256325,16.5953874 L26.1273397,16.5953874 C25.7847264,16.5953874 25.4849398,16.895174 25.4849398,17.2377873 L25.4849398,19.6360801 C25.4849398,19.9786934 25.7847264,20.27848 26.1273397,20.27848 L28.5256325,20.27848 Z M3.72899763,35.3106369 L22.0588072,35.3106369 C21.7590206,34.3684504 21.5877139,33.3834373 21.5877139,32.3984241 L3.72899763,32.3984241 C3.25790439,32.3984241 2.87246447,32.0129842 2.87246447,31.541891 L2.87246447,14.2827479 L31.6091519,14.2827479 L31.6091519,22.3341595 C32.6369917,22.3341595 33.6220048,22.5054662 34.5213646,22.7624261 L34.5213646,8.24418913 C34.5213646,6.14568289 32.8082983,4.47544324 30.7526187,4.47544324 L26.5127796,4.47544324 L26.5127796,2.11997706 C26.5127796,1.34909722 25.9132064,0.749524009 25.1423265,0.749524009 L23.0009936,0.749524009 C22.2301138,0.749524009 21.6305406,1.34909722 21.6305406,2.11997706 L21.6305406,4.47544324 L12.8939024,4.47544324 L12.8939024,2.11997706 C12.8939024,1.34909722 12.2943292,0.749524009 11.5234493,0.749524009 L9.38211646,0.749524009 C8.61123662,0.749524009 8.01166341,1.34909722 8.01166341,2.11997706 L8.01166341,4.47544324 L3.77182428,4.47544324 C1.67331805,4.47544324 0.00307839544,6.18850955 0.00307839544,8.24418913 L0.00307839544,31.541891 C-0.0825749202,33.6403972 1.63049139,35.3106369 3.72899763,35.3106369 Z M31.5663252,25.0750656 C35.5492044,25.0750656 38.8040304,28.3298916 38.8040304,32.3127708 C38.8040304,36.29565 35.5492044,39.550476 31.5663252,39.550476 C27.583446,39.550476 24.32862,36.29565 24.32862,32.3127708 C24.32862,28.3298916 27.5406194,25.0750656 31.5663252,25.0750656 Z M34.8146233,29.657518 L30.6702293,33.8019121 L29.214123,32.3458057 C28.8715097,32.0031924 28.3575898,32.0031924 28.0149765,32.3458057 C27.6723633,32.688419 27.6723633,33.2023389 28.0149765,33.5449521 L29.4710829,35.0010585 L30.2859057,35.8158813 L30.2859057,35.8158813 L30.2859057,35.8158813 C30.4981618,36.0281374 30.8422969,36.0281374 31.054553,35.8158813 L31.0587241,35.8117101 L31.8693757,35.0010585 L36.0137698,30.8566645 C36.356383,30.5140512 36.356383,30.0001313 36.0137698,29.657518 C35.6711565,29.3577314 35.11441,29.3577314 34.8146233,29.657518 Z" id="Shape"></path>
                </g>
            </g>
        </g>
    </g>
</svg>