<?xml version="1.0" encoding="UTF-8"?>
<svg width="32px" height="32px" viewBox="0 0 32 32" version="1.1" xmlns="http://www.w3.org/2000/svg" xmlns:xlink="http://www.w3.org/1999/xlink">
    <!-- Generator: Sketch 47 (45396) - http://www.bohemiancoding.com/sketch -->
    <title>Combined Shape</title>
    <desc>Created with Sketch.</desc>
    <defs></defs>
    <g id="Page-1" stroke="none" stroke-width="1" fill="none" fill-rule="evenodd">
        <g id="Desktop-HD-Copy" transform="translate(-232.000000, -1263.000000)" fill="#064047">
            <g id="TICKETS" transform="translate(70.000000, 1247.000000)">
                <path d="M162.295679,36.2829966 C161.90144,35.8887576 161.90144,35.24957 162.295679,34.8553311 L180.855331,16.2956792 C181.24957,15.9014403 181.888758,15.9014403 182.282997,16.2956792 L185.85216,19.864843 C184.669444,21.0475599 184.669444,22.9651228 185.85216,24.1478396 C187.034877,25.3305565 188.95244,25.3305565 190.135157,24.1478396 L193.704321,27.7170034 C194.09856,28.1112424 194.09856,28.75043 193.704321,29.1446689 L175.144669,47.7043208 C174.75043,48.0985597 174.111242,48.0985597 173.717003,47.7043208 L170.14784,44.135157 C171.330556,42.9524401 171.330556,41.0348772 170.14784,39.8521604 C168.965123,38.6694435 167.04756,38.6694435 165.864843,39.8521604 L162.295679,36.2829966 Z M179.257079,26.9716851 C178.562813,26.2774197 177.437187,26.2774197 176.742921,26.9716851 L172.971685,30.7429213 C172.27742,31.4371867 172.27742,32.5628133 172.971685,33.2570787 L176.742921,37.0283149 C177.437187,37.7225803 178.562813,37.7225803 179.257079,37.0283149 L183.028315,33.2570787 C183.72258,32.5628133 183.72258,31.4371867 183.028315,30.7429213 L179.257079,26.9716851 Z" id="Combined-Shape"></path>
            </g>
        </g>
    </g>
</svg>